<svg width="100%" viewBox="0 0 680 500" role="img" xmlns="http://www.w3.org/2000/svg">
  <title>EasyHealth logo</title>
  <defs>
    <linearGradient id="heartG" x1="0%" y1="0%" x2="100%" y2="100%">
      <stop offset="0%" style="stop-color:#B94FE8"/>
      <stop offset="100%" style="stop-color:#9D11D9"/>
    </linearGradient>
    <linearGradient id="leafG" x1="0%" y1="100%" x2="0%" y2="0%">
      <stop offset="0%" style="stop-color:#9D11D9"/>
      <stop offset="100%" style="stop-color:#C66FEF"/>
    </linearGradient>
    <linearGradient id="bgG" x1="0%" y1="0%" x2="100%" y2="100%">
      <stop offset="0%" style="stop-color:#0E0E14"/>
      <stop offset="100%" style="stop-color:#1A0A24"/>
    </linearGradient>
    <linearGradient id="divG" x1="0%" y1="0%" x2="100%" y2="0%">
      <stop offset="0%" style="stop-color:#9D11D9"/>
      <stop offset="50%" style="stop-color:#C66FEF"/>
      <stop offset="100%" style="stop-color:#9D11D9"/>
    </linearGradient>
  </defs>

  <rect x="140" y="20" width="400" height="460" rx="36" fill="url(#bgG)"/>

  <circle cx="340" cy="200" r="112" fill="#9D11D9" opacity="0.08"/>
  <circle cx="340" cy="200" r="88" fill="#9D11D9" opacity="0.07"/>

  <path d="M340 282 C298 254 236 222 236 172 C236 144 259 122 288 122 C309 122 327 134 340 150 C353 134 371 122 392 122 C421 122 444 144 444 172 C444 222 382 254 340 282 Z" fill="url(#heartG)"/>

  <ellipse cx="308" cy="108" rx="13" ry="28" fill="url(#leafG)" transform="rotate(-32 308 108)"/>
  <ellipse cx="372" cy="108" rx="13" ry="28" fill="url(#leafG)" transform="rotate(32 372 108)"/>
  <ellipse cx="340" cy="100" rx="10" ry="24" fill="url(#leafG)"/>
  <line x1="340" y1="122" x2="340" y2="150" stroke="#C66FEF" stroke-width="2" stroke-linecap="round"/>

  <polyline points="262,198 278,198 286,178 297,218 308,164 320,210 330,198 350,198 360,178 371,218 382,164 394,210 404,198 418,198" fill="none" stroke="white" stroke-width="2.5" stroke-linecap="round" stroke-linejoin="round" opacity="0.95"/>

  <text x="340" y="336" text-anchor="middle" font-family="system-ui, -apple-system, sans-serif" font-size="36" font-weight="800" letter-spacing="2" fill="white">Easy<tspan fill="#B94FE8">Health</tspan></text>

  <rect x="252" y="352" width="176" height="2" rx="1" fill="url(#divG)"/>

  <text x="340" y="380" text-anchor="middle" font-family="system-ui, -apple-system, sans-serif" font-size="11" font-weight="400" letter-spacing="4" fill="#8B5AA0">FITNESS + NUTRICAO + PERFORMANCE</text>

  <text x="340" y="438" text-anchor="middle" font-family="system-ui, -apple-system, sans-serif" font-size="11" font-weight="400" letter-spacing="1" fill="#4A2860">Onde a tecnologia encontra a forca.</text>
</svg>